Coordinates
version=1
nRows=34
nColumns=38
inDegrees=no

Units are S.I. units (second, meters, Newtons, ...)
If the header above contains a line with 'inDegrees', this indicates whether rotational values are in degrees (yes) or radians (no).

endheader
time	pelvis_tilt	pelvis_list	pelvis_rotation	pelvis_tx	pelvis_ty	pelvis_tz	hip_flexion_r	hip_adduction_r	hip_rotation_r	knee_angle_r	ankle_angle_r	subtalar_angle_r	mtp_angle_r	hip_flexion_l	hip_adduction_l	hip_rotation_l	knee_angle_l	ankle_angle_l	subtalar_angle_l	mtp_angle_l	lumbar_extension	lumbar_bending	lumbar_rotation	arm_flex_r	arm_add_r	arm_rot_r	elbow_flex_r	pro_sup_r	wrist_flex_r	wrist_dev_r	arm_flex_l	arm_add_l	arm_rot_l	elbow_flex_l	pro_sup_l	wrist_flex_l	wrist_dev_l
80	-2.57677	1.30381	1.03767	0.690476	1.88553	0.99797	0.147924	0.0424392	-0.305301	0.191444	-0.0830594	0	0	0.2001	-0.238509	-0.510772	0.314219	-0.0937592	0	0	0.22626	0.173085	-0.0568171	-0.102369	-0.260201	0.241774	0.508609	1.5708	0	0	-0.101239	-0.255229	0.595174	0.617961	1.1963	0	0
80.01	-2.56616	1.30924	1.03006	0.693335	1.88599	0.998331	0.150927	0.0370318	-0.303188	0.210419	-0.0784938	0	0	0.194206	-0.235235	-0.508214	0.313912	-0.0904387	0	0	0.216246	0.170861	-0.0553637	-0.100344	-0.259704	0.23813	0.514862	1.5708	0	0	-0.100548	-0.257471	0.590428	0.621858	1.19868	0	0
80.02	-2.55716	1.3158	1.02342	0.6964	1.88646	0.998809	0.156069	0.029683	-0.301905	0.235822	-0.0734905	0	0	0.18656	-0.230013	-0.506828	0.311744	-0.088253	0	0	0.204726	0.167872	-0.0532444	-0.0974888	-0.259588	0.234044	0.520185	1.5708	0	0	-0.0992424	-0.259618	0.586867	0.625206	1.20198	0	0
80.03	-2.54521	1.32329	1.01347	0.699501	1.88693	0.99939	0.161741	0.0222637	-0.298018	0.264795	-0.0689355	0	0	0.177188	-0.224559	-0.506119	0.30874	-0.0867679	0	0	0.19154	0.165189	-0.0507907	-0.0941448	-0.259894	0.231731	0.525389	1.5708	0	0	-0.097145	-0.261729	0.584684	0.627837	1.20541	0	0
80.04	-2.53285	1.32997	1.0022	0.702535	1.88734	0.999946	0.169735	0.0152427	-0.291179	0.296994	-0.0654517	0	0	0.167499	-0.218708	-0.504232	0.303079	-0.0858893	0	0	0.179169	0.162916	-0.0475524	-0.0904347	-0.260282	0.232239	0.529012	1.5708	0	0	-0.0949571	-0.263298	0.582753	0.629001	1.20786	0	0
80.05	-2.52119	1.33522	0.991542	0.705483	1.88771	1.00047	0.180673	0.00882417	-0.282326	0.332133	-0.0638197	0	0	0.159788	-0.214498	-0.505115	0.299396	-0.0853478	0	0	0.168222	0.161207	-0.0455323	-0.0860781	-0.260176	0.233666	0.531493	1.5708	0	0	-0.0934683	-0.264649	0.58065	0.629364	1.20982	0	0
80.06	-2.58629	1.43644	1.11192	0.708765	1.89376	1.01094	0.108961	-0.0698731	-0.337512	0.36833	-0.0577067	0	0	0.0757604	-0.120774	-0.389967	0.239554	-0.13384	0	0	0.0408673	0.0724829	-0.0888706	-0.022843	-0.215294	0.231004	0.490843	1.5708	0	0	-0.0565232	-0.305095	0.581495	0.645962	1.19937	0	0
80.07	-2.51328	1.33492	0.983743	0.710927	1.88825	1.00065	0.219275	0.000100941	-0.256874	0.411591	-0.0602961	0	0	0.157359	-0.211866	-0.511118	0.297072	-0.0826328	0	0	0.161966	0.160719	-0.0394784	-0.0813788	-0.261783	0.244264	0.535539	1.5708	0	0	-0.0913502	-0.267175	0.58581	0.624843	1.20656	0	0
80.08	-2.50666	1.33559	0.977568	0.713563	1.88854	1.00084	0.239375	-0.00401643	-0.244326	0.454598	-0.0618091	0	0	0.154541	-0.210042	-0.512184	0.293812	-0.0821168	0	0	0.15689	0.160426	-0.0381239	-0.0767664	-0.262776	0.254869	0.536829	1.5708	0	0	-0.0902621	-0.268381	0.587428	0.621715	1.20686	0	0
80.09	-2.50483	1.33595	0.975187	0.716036	1.88877	1.00096	0.261723	-0.00848218	-0.230518	0.499623	-0.0651427	0	0	0.151931	-0.207179	-0.513832	0.289496	-0.0820037	0	0	0.15251	0.159505	-0.0373315	-0.0709928	-0.263744	0.268293	0.53779	1.5708	0	0	-0.0901417	-0.26993	0.588858	0.61848	1.20631	0	0
80.1	-2.5012	1.33687	0.971291	0.718455	1.88893	1.0011	0.283819	-0.012443	-0.217203	0.544914	-0.0696375	0	0	0.148578	-0.204436	-0.516438	0.285598	-0.0821103	0	0	0.147294	0.158234	-0.0358683	-0.0655879	-0.26395	0.279398	0.539282	1.5708	0	0	-0.0892029	-0.272041	0.592139	0.615004	1.20588	0	0
80.11	-2.49786	1.3377	0.968003	0.720774	1.88893	1.00123	0.305946	-0.016161	-0.205732	0.589211	-0.074441	0	0	0.145049	-0.201787	-0.519674	0.28172	-0.0820112	0	0	0.142636	0.156525	-0.0339614	-0.0618829	-0.263561	0.286083	0.542496	1.5708	0	0	-0.0882889	-0.274492	0.59598	0.610734	1.20536	0	0
80.12	-2.49703	1.33739	0.967035	0.722897	1.88864	1.00124	0.328802	-0.0193026	-0.196108	0.631196	-0.0776968	0	0	0.142475	-0.199573	-0.524376	0.278139	-0.0814883	0	0	0.140356	0.154584	-0.0317287	-0.0604921	-0.263315	0.289746	0.54709	1.5708	0	0	-0.0877467	-0.276741	0.600433	0.604925	1.20574	0	0
80.13	-2.37615	1.24593	0.84403	0.721482	1.88882	0.990373	0.408269	0.0743333	-0.188599	0.670273	-0.0733783	0	0	0.229403	-0.330091	-0.623146	0.390874	-0.0163564	0	0	0.207369	0.244715	-0.0389776	-0.104093	-0.293729	0.275498	0.619122	1.5708	0	0	-0.119094	-0.275943	0.580644	0.642047	1.21702	0	0
80.14	-2.36387	1.24791	0.835062	0.723786	1.8883	0.990711	0.424389	0.0709866	-0.189717	0.704816	-0.0730773	0	0	0.222857	-0.328221	-0.625212	0.386611	-0.0164184	0	0	0.200358	0.24331	-0.0385504	-0.102168	-0.293403	0.274206	0.623442	1.5708	0	0	-0.117091	-0.278	0.584921	0.634923	1.21584	0	0
80.15	-2.34934	1.2808	0.794375	0.724135	1.88409	0.995005	0.409904	0.0582187	-0.162882	0.731853	-0.0736117	0	0	0.0502503	-0.196995	-0.241746	0	-0.121715	0	0	0.165831	0.224679	-0.00504535	-0.0975387	-0.286565	0.271353	0.613453	1.5708	0	0	-0.112413	-0.280222	0.600064	0.615219	1.20536	0	0
80.16	-2.3325	1.24681	0.811653	0.727669	1.88681	0.991207	0.456399	0.0697921	-0.198545	0.762255	-0.0770931	0	0	0.214311	-0.332712	-0.629625	0.384021	-0.0143558	0	0	0.189784	0.245349	-0.0408017	-0.101777	-0.29239	0.258367	0.635556	1.5708	0	0	-0.11296	-0.283095	0.601247	0.617689	1.19772	0	0
80.17	-2.30652	1.24925	0.793189	0.73016	1.88553	0.991901	0.464957	0.0670759	-0.209984	0.783625	-0.0818137	0	0	0.204801	-0.332562	-0.624911	0.377922	-0.014731	0	0	0.18007	0.246875	-0.0465471	-0.0998386	-0.292827	0.25127	0.641125	1.5708	0	0	-0.111281	-0.283437	0.605977	0.606278	1.1903	0	0
80.18	-2.27057	1.24884	0.76831	0.733489	1.88402	0.992559	0.470945	0.0659435	-0.228016	0.798614	-0.0888402	0	0	0.196351	-0.335323	-0.614898	0.371539	-0.0146137	0	0	0.171613	0.253596	-0.0549878	-0.100599	-0.295361	0.241196	0.649727	1.5708	0	0	-0.108368	-0.281017	0.614206	0.591761	1.17929	0	0
80.19	-2.25067	1.25128	0.753221	0.735238	1.88254	0.9933	0.479387	0.0641017	-0.235903	0.811701	-0.0942993	0	0	0.186907	-0.334468	-0.611486	0.365151	-0.0151506	0	0	0.163036	0.252439	-0.0562477	-0.099704	-0.293339	0.230935	0.653428	1.5708	0	0	-0.106307	-0.282902	0.621408	0.579231	1.16814	0	0
80.2	-2.22921	1.24873	0.737872	0.73735	1.88092	0.993675	0.489555	0.0657092	-0.24641	0.818953	-0.100537	0	0	0.182529	-0.338627	-0.608991	0.363157	-0.014544	0	0	0.159162	0.256048	-0.0582882	-0.103153	-0.293432	0.215611	0.661768	1.5708	0	0	-0.103835	-0.282888	0.632357	0.565051	1.154	0	0
80.21	-2.21118	1.24445	0.725459	0.739227	1.87915	0.993894	0.500795	0.0691986	-0.255427	0.821537	-0.105747	0	0	0.180348	-0.344094	-0.607413	0.362717	-0.0136782	0	0	0.15762	0.260332	-0.0605607	-0.10648	-0.293102	0.200715	0.668822	1.5708	0	0	-0.102397	-0.282776	0.643377	0.550794	1.137	0	0
80.22	-2.19563	1.24011	0.715187	0.741033	1.87723	0.994081	0.511717	0.0732063	-0.262784	0.820022	-0.108832	0	0	0.178297	-0.348823	-0.605554	0.361449	-0.0127622	0	0	0.156492	0.264404	-0.0638824	-0.108128	-0.292967	0.189324	0.67387	1.5708	0	0	-0.102798	-0.282276	0.650622	0.537209	1.12003	0	0
80.23	-2.18066	1.23687	0.705984	0.743005	1.87517	0.994322	0.520922	0.0763742	-0.269626	0.814639	-0.110503	0	0	0.17538	-0.351852	-0.602873	0.35926	-0.0131663	0	0	0.154631	0.267654	-0.0677122	-0.109264	-0.292956	0.17858	0.678135	1.5708	0	0	-0.102501	-0.28149	0.660163	0.52258	1.10279	0	0
80.24	-2.16841	1.23324	0.69915	0.744875	1.87299	0.994478	0.530239	0.0800263	-0.275251	0.805547	-0.111195	0	0	0.173496	-0.354842	-0.60073	0.357694	-0.0145117	0	0	0.154145	0.270609	-0.0708553	-0.110849	-0.29273	0.167839	0.681543	1.5708	0	0	-0.102276	-0.281026	0.671522	0.508086	1.08321	0	0
80.25	-2.15866	1.22872	0.694104	0.746588	1.87068	0.994513	0.540047	0.0845787	-0.279842	0.792932	-0.111282	0	0	0.172944	-0.358604	-0.599978	0.357259	-0.0160681	0	0	0.155154	0.273705	-0.0730925	-0.112417	-0.29228	0.158228	0.683558	1.5708	0	0	-0.102129	-0.280696	0.684331	0.494016	1.06196	0	0
80.26	-2.15134	1.2231	0.690957	0.748142	1.86831	0.994397	0.550582	0.0902354	-0.2833	0.776924	-0.111137	0	0	0.174217	-0.363652	-0.601099	0.358889	-0.0167926	0	0	0.157506	0.277369	-0.0750695	-0.114042	-0.29187	0.148829	0.685274	1.5708	0	0	-0.101722	-0.281227	0.702273	0.481052	1.0343	0	0
80.27	-2.14422	1.21737	0.68783	0.749562	1.86586	0.994269	0.560485	0.0964911	-0.286091	0.757689	-0.111033	0	0	0.175664	-0.3691	-0.602447	0.361032	-0.0167769	0	0	0.159492	0.28122	-0.0774575	-0.114806	-0.291616	0.140795	0.686462	1.5708	0	0	-0.102496	-0.281733	0.715857	0.469146	1.0115	0	0
80.28	-2.13388	1.21226	0.682205	0.751097	1.86331	0.994189	0.568044	0.10242	-0.290318	0.735567	-0.111334	0	0	0.176004	-0.375069	-0.604578	0.364028	-0.0162207	0	0	0.160003	0.285156	-0.0799723	-0.114843	-0.291873	0.135661	0.686992	1.5708	0	0	-0.102375	-0.282101	0.730707	0.457439	0.991662	0	0
80.29	-2.12736	1.20575	0.679557	0.752335	1.86064	0.993899	0.577107	0.109341	-0.29359	0.711075	-0.112245	0	0	0.178518	-0.382203	-0.607456	0.368439	-0.0152808	0	0	0.162818	0.289059	-0.0817983	-0.115176	-0.291951	0.131553	0.686728	1.5708	0	0	-0.103648	-0.283355	0.743436	0.448285	0.972906	0	0
80.3	-2.12696	1.19784	0.681013	0.753187	1.85777	0.993304	0.588541	0.117437	-0.294268	0.68477	-0.113773	0	0	0.183	-0.389767	-0.611319	0.373286	-0.013943	0	0	0.168045	0.292806	-0.0824403	-0.116184	-0.291809	0.127424	0.686863	1.5708	0	0	-0.10642	-0.285041	0.753711	0.441064	0.958309	0	0
80.31	-2.13158	1.1881	0.684901	0.754212	1.85428	0.992437	0.601368	0.126263	-0.294373	0.656507	-0.116635	0	0	0.187456	-0.396602	-0.615525	0.374971	-0.012265	0	0	0.179196	0.297708	-0.0797769	-0.12126	-0.293312	0.122807	0.687088	1.5708	0	0	-0.111169	-0.285393	0.762398	0.434255	0.949351	0	0
80.32	-2.11899	1.18436	0.676771	0.755509	1.85132	0.992314	0.604622	0.132476	-0.297812	0.626278	-0.120336	0	0	0.185324	-0.402241	-0.61521	0.377212	-0.0109207	0	0	0.176778	0.300925	-0.0803504	-0.120172	-0.293799	0.120802	0.686373	1.5708	0	0	-0.113407	-0.287846	0.763556	0.431783	0.947513	0	0
80.33	-2.10555	1.18138	0.668055	0.75679	1.84836	0.992185	0.606814	0.138368	-0.300877	0.595042	-0.123746	0	0	0.182226	-0.40689	-0.612713	0.378234	-0.0102638	0	0	0.172664	0.303508	-0.0813591	-0.117468	-0.29428	0.12054	0.684811	1.5708	0	0	-0.117128	-0.291349	0.756614	0.433434	0.955842	0	0
